<svg xmlns="http://www.w3.org/2000/svg" width="512" height="512" xml:space="preserve"><circle fill="#1B9BAA" cx="256" cy="256" r="256"/><path opacity=".1" d="M509.788 289.715 317.151 97.079H256V512c129.956 0 237.282-96.836 253.788-222.285z"/><path fill="#FFD0AE" d="M349.73 360.184c-74.441 0-57.833-36.507-62.884-73.06h-61.693c-5.05 36.553 11.558 73.06-62.884 73.06-47.574 0-63.807 20.847-63.807 66.709v30.9C141.903 491.754 196.585 512 256 512c59.415 0 114.097-20.245 157.537-54.207v-30.9c0-45.863-16.232-66.709-63.807-66.709z"/><path opacity=".1" d="M288.117 308.324c-.161-6.264-.377-12.73-1.271-19.2h-61.693c-.89 6.439-1.107 12.877-1.269 19.114 8.926 5.721 19.539 9.159 32.184 9.159 12.582 0 23.152-3.404 32.049-9.073z"/><path fill="#EFF0F0" d="M349.73 360.184c-9.712 0-17.861-.627-24.725-1.788L256 365.914l-69.006-7.519c-6.863 1.161-15.012 1.788-24.724 1.788-47.574 0-63.807 20.847-63.807 66.709v30.9C141.903 491.754 196.585 512 256 512c59.415 0 114.097-20.245 157.537-54.207v-30.9c0-45.863-16.232-66.709-63.807-66.709z"/><path fill="#231F20" d="M349.73 360.184c-9.712 0-17.976-.627-24.838-1.788l-68.824 147.271-69.075-147.271c-6.863 1.161-15.012 1.788-24.724 1.788-47.574 0-63.807 20.847-63.807 66.709v30.9C141.903 491.754 196.585 512 256 512c59.415 0 114.097-20.245 157.537-54.207v-30.9c0-45.863-16.232-66.709-63.807-66.709z"/><path fill="#EFF0F0" d="M221.48 332.181h-4.741l-28.985 26.876 31.182 44.558L256 365.914zM290.623 332.181h4.638l28.985 26.876-31.182 44.558L256 365.914z"/><ellipse fill="#FFD0AE" cx="181.188" cy="223.44" rx="13.799" ry="16.269"/><g opacity=".1"><path d="M246.567 384.181h1.595V491.5h-1.595zM263.838 384.181h1.595V491.5h-1.595z"/></g><ellipse fill="#FFD0AE" cx="330.95" cy="223.44" rx="13.799" ry="16.269"/><path fill="#FFD0AE" d="M269.791 106.669h-27.445c-36.089 0-65.345 42.325-65.345 78.415 0 0 2.112 126.77 79.068 126.77s79.068-126.77 79.068-126.77c0-36.09-29.256-78.415-65.346-78.415z"/><path opacity=".1" d="M218.936 407.608 256 368.9l37.064 38.708 35.168-48.722-.024-.007c-1.094-.15-2.167-.31-3.202-.484l-31.941 45.22L256 365.914l-37.064 37.701-31.942-45.22a103.76 103.76 0 0 1-3.202.484l-.025.007 35.169 48.722z"/><path fill="#2B2728" d="m208.443 339.34-21.45 19.056L183.767 386l16.871 9.152L177.001 389s21.316 80 79.068 116.667L208.443 339.34z"/><path fill="#2B2728" d="m303.442 339.34 21.45 19.056L328.119 386l-16.871 9.152L334.885 389s-21.316 80-79.068 116.667l47.625-166.327z"/><path opacity=".2" d="m183.767 386 3.227-27.604c-.994.168-2.022.321-3.071.467l-2.992 25.599 2.836 1.538zM177.001 389l23.637 6.152-8.65-4.692-17.864-4.65s22.093 82.916 81.95 120.919l-.373-1.303C198.229 468.653 177.001 389 177.001 389z"/><path opacity=".2" d="M311.248 395.152 334.885 389s-21.228 79.653-78.699 116.426l-.373 1.303c59.856-38.003 81.95-120.919 81.95-120.919l-17.864 4.65-8.651 4.692zM327.961 358.848c-1.008-.142-2.111-.29-3.068-.452L328.119 386l2.836-1.539-2.994-25.613z"/><path fill="#45473C" d="M337.729 209.468c11.648-17.49 16.543-116.979-38.549-116.576-36.241-43.737-156.908 3.597-124.894 116.576l7.457 4.695s-.409-20.461 2.394-29.234 21.469-78.104 108.361-55.14c17.107 42.033 32.687 21.367 37.889 60.14 2.195 16.371-.114 24.234-.114 24.234l7.456-4.695z"/><path opacity=".1" d="M330.346 189.866c-5.201-38.773-20.78-18.107-37.889-60.14-86.892-22.964-105.559 46.367-108.361 55.14-2.545 7.97-2.441 25.581-2.401 28.741.072-6.655.488-18.085 2.401-24.074 2.802-8.773 21.469-78.104 108.361-55.14 17.108 42.033 32.688 21.367 37.889 60.14.552 4.118.818 7.695.909 10.746.117-3.849-.044-8.96-.909-15.413z"/><path fill="#2B2728" d="M259.629 367.81h-7.97c-6.953-5.363-21.063-14.677-26.316-6.593v29.57c5.253 8.084 19.363-1.23 26.316-6.594h7.97c6.952 5.363 21.063 14.678 26.316 6.594v-29.57c-5.254-8.084-19.364 1.229-26.316 6.593z"/><path opacity=".2" d="M251.692 367.822v16.358s-.917-4.152-.917-8.179c0-4.026.917-8.179.917-8.179zM259.669 367.822v16.358s.916-4.152.916-8.179c0-4.026-.916-8.179-.916-8.179z"/></svg>