<svg xmlns="http://www.w3.org/2000/svg" xml:space="preserve" width="2048" height="2048" style="shape-rendering:geometricPrecision;text-rendering:geometricPrecision;image-rendering:optimizeQuality;fill-rule:evenodd;clip-rule:evenodd"><defs><clipPath id="id0"><path d="M1024 0c565.538 0 1024 458.462 1024 1024s-458.462 1024-1024 1024S0 1589.538 0 1024 458.462 0 1024 0z"/></clipPath><style>.fil3{fill:#37474f}.fil1{fill:#afb42b}.fil4{fill:#fffffe;fill-rule:nonzero}</style></defs><g id="Layer_x0020_1"><path d="M1024 0c565.538 0 1024 458.462 1024 1024s-458.462 1024-1024 1024S0 1589.538 0 1024 458.462 0 1024 0z" style="fill:#c0ca33"/><g style="clip-path:url(#id0)"><g id="_385677952"><path id="_3303924961" class="fil1" d="M1364.32 594.005 2500.2 1729.89h-.11L1364.21 594.005z"/><path id="_330392904" class="fil1" d="M1535.93 645.696 2671.81 1781.58l-13.82 134.77L1522.11 780.471z"/><path id="_330397800" class="fil1" d="M981.983 643.848 2117.86 1779.73l-.01.13-.01.14-.01.14-.01.13-.01.14v.13l-.01.14v.14L981.917 644.933l.003-.136.004-.137.007-.135.009-.136.009-.136.011-.135.012-.136z"/><path id="_330397944" class="fil1" d="M981.917 644.933 2117.8 1780.82l.04 1.23.16 1.27.3 1.32.45 1.38.6 1.45.78 1.55.97 1.65 1.17 1.77L986.388 656.554l-1.168-1.77-.969-1.65-.781-1.545-.605-1.454-.446-1.377-.297-1.317-.163-1.27z"/><path id="_330398016" class="fil1" d="M986.388 656.554 2122.27 1792.44l1.19 1.74 1.15 1.77 1.1 1.78 1.05 1.79 1.02 1.82.97 1.83.93 1.86.89 1.87.86 1.89.83 1.9.79 1.93.75 1.94.73 1.97.7 1.98.68 2 .65 2.02.62 2.04.61 2.06.58 2.08.56 2.1.55 2.12.53 2.13.52 2.16.5 2.18.5 2.2.48 2.22.48 2.24.47 2.27.47 2.28.46 2.3.47 2.33.46 2.34L1008.94 721.699l-.46-2.346-.47-2.324-.46-2.304-.47-2.282-.47-2.262-.48-2.241-.48-2.22-.5-2.199-.5-2.18-.52-2.159-.53-2.139-.55-2.117-.56-2.099-.59-2.08-.6-2.059-.62-2.041-.65-2.019-.677-2.002-.701-1.982-.728-1.963-.759-1.945-.79-1.926-.823-1.907-.859-1.889-.894-1.869-.932-1.854-.972-1.833-1.012-1.816-1.056-1.799-1.099-1.78-1.147-1.763z"/><path id="_330398832" class="fil1" d="M777.353 498.514 1913.23 1634.4l1.54 1.68 1.36 1.83 1.19 1.95 1 2.08.8 2.18.59 2.27.36 2.35.12 2.43L784.307 515.287l-.123-2.425-.359-2.355-.586-2.274-.798-2.179-1.001-2.074-1.189-1.956-1.367-1.826z"/><path id="_330398904" class="fil1" d="m1007.88 778.11 1135.88 1135.88-.08 3.09.17 3.04.42 2.98.66 2.94.86 2.89 1.07 2.86 1.25 2.83 1.42 2.81 1.57 2.78 1.7 2.77 1.83 2.76 1.93 2.76 2.01 2.76 2.1 2.76 2.14 2.78 2.19 2.79 2.22 2.82 2.23 2.84 2.22 2.87 2.2 2.91 2.16 2.95 2.11 3 2.05 3.06 1.95 3.11 1.86 3.17 1.74 3.25 1.62 3.32 1.46 3.39 1.3 3.48 1.13 3.58.92 3.66.72 3.77L1057.01 874.885l-.72-3.766-.93-3.666-1.12-3.57-1.3-3.481-1.47-3.398-1.61-3.318-1.74-3.244-1.86-3.175-1.96-3.112-2.04-3.055-2.11-3-2.16-2.954-2.2-2.91-2.22-2.872-2.23-2.841-2.22-2.814-2.19-2.793-2.15-2.774-2.09-2.765-2.02-2.758-1.93-2.757-1.82-2.761-1.71-2.77-1.56-2.786-1.42-2.805-1.25-2.83-1.07-2.861-.87-2.896-.65-2.937-.42-2.982-.18-3.035z"/><path id="_330398712" class="fil1" d="M1057.01 874.885 2192.89 2010.77l.14 2.95-.35 2.55-.81 2.19-1.21 1.85-1.57 1.54-1.89 1.27-2.16 1.03-2.39.82-2.58.64-2.72.5-2.81.38-2.87.29-2.88.25-2.85.22-2.76.23-2.65.28L1024.65 891.881l2.64-.279 2.77-.234 2.85-.224 2.88-.244 2.87-.295 2.81-.379 2.72-.494 2.58-.641 2.39-.82 2.16-1.029 1.89-1.27 1.57-1.544 1.21-1.85.8-2.186.36-2.554z"/><path id="_330399072" class="fil1" d="M1024.65 891.881 2160.53 2027.76l-.54.65-.49.73-.43.83-.39.91-.35.99-.31 1.07-.28 1.14-.26 1.21-.25 1.27-.22 1.33-.23 1.38-.22 1.44-.22 1.48-.24 1.53-.25 1.56-.28 1.6L1019.69 910.998l.27-1.599.26-1.565.23-1.526.23-1.484.22-1.436.22-1.385.23-1.33.24-1.27.26-1.207.29-1.139.31-1.066.35-.991.38-.911.44-.827.49-.737z"/><path id="_330398928" class="fil1" d="M1017.8 937.905 2153.68 2073.79l1.28 2.21 1.05 2.11.8 2.03.56 1.94.31 1.87.05 1.8-.22 1.73-.49 1.68-.77 1.62-1.06 1.58-1.35 1.54-1.65 1.5-1.96 1.47-2.27 1.45-2.58 1.43-2.92 1.42L1006.58 965.285l2.91-1.42 2.59-1.431 2.27-1.448 1.96-1.472 1.65-1.5 1.35-1.536 1.05-1.577.78-1.623.49-1.676.22-1.734-.05-1.799-.31-1.869-.56-1.945-.8-2.028-1.05-2.114z"/><path id="_330398880" class="fil1" d="M1020.98 912.261 2156.86 2048.14l1.29 1.5 1.25 1.71 1.16 1.86 1.03 1.99.88 2.06.67 2.11.43 2.12.15 2.07-.16 2.01-.53 1.88-.92 1.74-1.35 1.53-1.84 1.31-2.34 1.04-2.9.72L1017.8 937.905l2.9-.722 2.34-1.035 1.83-1.306 1.36-1.539.92-1.733.53-1.887.16-2.002-.15-2.078-.43-2.114-.68-2.109-.87-2.067-1.04-1.986-1.16-1.863-1.24-1.702z"/><path id="_330398808" class="fil1" d="M1006.58 965.285 2142.46 2101.17l.23.91.21.9.2.91.18.9.18.9.16.9.16.9.15.9L1008.05 972.511l-.15-.899-.16-.901-.16-.901-.18-.903-.19-.903-.19-.905-.21-.906z"/><path id="_330398592" class="fil1" d="m1005.06 1012.36 1135.88 1135.88-.79 2.1-.85 1.98-.91 1.86-.98 1.76-1.04 1.66-1.1 1.56-1.16 1.46-1.23 1.36-1.28 1.28-1.35 1.19-1.41 1.11-1.46 1.03-1.53.95-1.58.88-1.65.81-1.7.75-1.77.69-1.82.63-1.88.57-1.93.52-2 .48-2.05.43-2.11.39-2.16.36-2.22.32-2.28.29-2.33.27-2.39.24-2.44.23-2.49.21-2.56.19-2.6.19L950.007 1040.11l2.606-.19 2.551-.2 2.497-.21 2.441-.22 2.389-.24 2.331-.27 2.276-.29 2.22-.33 2.165-.35 2.109-.39 2.05-.43 1.994-.48 1.937-.52 1.879-.58 1.821-.63 1.762-.68 1.705-.75 1.645-.81 1.585-.88 1.527-.96 1.466-1.02 1.407-1.11 1.346-1.19 1.285-1.28 1.225-1.37 1.162-1.46 1.102-1.55 1.04-1.66.98-1.76.91-1.87.85-1.97z"/><path id="_330398616" class="fil1" d="M952.413 1356.29 2088.29 2492.17l.17 1.56.16 1.57.16 1.56.15 1.57.15 1.57.13 1.57.14 1.57.12 1.58L953.59 1368.84l-.124-1.58-.133-1.58-.138-1.57-.145-1.57-.151-1.56-.156-1.57-.163-1.56z"/><path id="_330398640" class="fil1" d="M1012.63 976.217 2148.52 2112.1l.98 1.08.92 1.13.85 1.18.77 1.23.69 1.28.61 1.32.52 1.36.44 1.39.35 1.43.24 1.46.16 1.49.05 1.51L1019.22 992.074l-.05-1.511-.16-1.487-.25-1.459-.34-1.428-.44-1.395-.52-1.358-.61-1.319-.69-1.277-.77-1.231-.85-1.183-.92-1.132z"/><path id="_330399432" class="fil1" d="M950.007 1040.11 2085.89 2175.99l-2.75.26-2.69.38-2.63.5-2.57.62-2.51.74-2.45.85-2.4.96-2.34 1.07-2.29 1.18-2.24 1.28-2.18 1.38-2.12 1.48-2.08 1.57-2.03 1.67-1.98 1.77-1.93 1.85-1.88 1.94-1.83 2.02-1.79 2.11-1.75 2.18-1.7 2.27-1.66 2.33-1.61 2.41-1.58 2.48-1.53 2.55-1.49 2.61-1.46 2.68-1.42 2.74-1.38 2.79-1.35 2.85-1.31 2.91-1.27 2.95L887.807 1097.49l1.277-2.96 1.31-2.9 1.346-2.85 1.381-2.8 1.418-2.73 1.457-2.68 1.494-2.61 1.533-2.55 1.574-2.48 1.616-2.41 1.658-2.34 1.7-2.26 1.745-2.19 1.79-2.1 1.834-2.02 1.883-1.94 1.928-1.85 1.979-1.77 2.027-1.67 2.077-1.57 2.129-1.48 2.18-1.39 2.233-1.28 2.288-1.17 2.342-1.07 2.398-.96 2.454-.85 2.511-.74 2.57-.62 2.629-.5 2.69-.38z"/><path id="_330399168" class="fil1" d="M968.131 569.513 2104.01 1705.4l.32.34.32.35.31.35.31.35L969.391 570.903l-.311-.35-.313-.348-.317-.347z"/><path id="_330399720" class="fil1" d="M1530.87 626.463 2666.75 1762.35l1.23 1.63 1.08 1.73.93 1.81.78 1.88.61 1.94.44 1.99.27 2.03.09 2.06-.09 2.08-.28 2.08L1535.93 645.696l.28-2.081.09-2.075-.09-2.059-.27-2.031-.44-1.993-.61-1.943-.78-1.881-.93-1.81-1.08-1.726z"/><path id="_330399240" class="fil1" d="M969.391 570.903 2105.27 1706.79l.82.97L970.207 571.876z"/><path id="_330399192" class="fil1" d="M1577.89 792.308 2713.77 1928.19l1.35 1.64 1.2 1.76 1.05 1.86.87 1.96.7 2.04.51 2.11.32 2.17.11 2.22L1584 808.064l-.11-2.22-.32-2.169-.51-2.11-.7-2.037-.87-1.956-1.05-1.863-1.2-1.758z"/><path id="_330399528" class="fil1" d="M1584 808.064 2719.88 1943.95v.18L1584 808.249z"/><path id="_330399096" class="fil1" d="M1584 808.249 2719.88 1944.13v.29l-.01.29-.01.29-.01.29-.01.29-.02.29-.03.29-.03.29L1583.88 810.566l.03-.291.02-.291.02-.29.02-.29.01-.29.01-.289.01-.288z"/><path id="_330399144" class="fil1" d="M1583.88 810.566 2719.76 1946.45l-.04.22-.03.22-.02.22-.03.22-.02.22-.03.22-.03.23-.04.22L1583.64 812.334l.04-.22.03-.222.03-.221.02-.221.03-.22.02-.221.03-.222z"/><path id="_330365496" class="fil1" d="m1286.85 1407.19 1135.88 1135.88.42.58.28.67-1135.88-1135.88-.29-.67z"/><path id="_330365640" class="fil1" d="M1072.72 1479.37 2208.6 2615.25l1.3 3.78-1135.88-1135.89z"/><path id="_330365520" class="fil1" d="M1074.02 1483.14 2209.9 2619.03l.06.22.04.23.03.23.01.22-.01.22-.01.22-.03.22-.03.22-1135.88-1135.88.03-.22.03-.22.01-.22.01-.22-.02-.23-.02-.22-.04-.23z"/><path id="_330365664" class="fil1" d="M929.083 1261.37 2064.96 2397.25l.58 1.46.57 1.47.57 1.47.56 1.47.56 1.48.54 1.48.55 1.49.53 1.49.53 1.5.53 1.5.52 1.51.51 1.51.5 1.51.5 1.52.5 1.53.48 1.53L937.611 1285.28l-.487-1.52-.493-1.53-.499-1.52-.506-1.51-.511-1.51-.519-1.51-.523-1.5-.53-1.5-.536-1.49-.544-1.49-.548-1.48-.554-1.48-.561-1.48-.567-1.46-.571-1.47z"/><path id="_330365832" class="fil1" d="m1124.21 1462.37 1135.88 1135.88 1.3 3.78-1135.88-1135.88z"/><path id="_330365952" class="fil1" d="M616.036 1133.43 1751.92 2269.31l-1.12-.66-1.04-.69-.98-.72-.9-.73L611.995 1130.63l.905.73.977.71 1.047.69z"/><path id="_330365568" class="fil1" d="m1125.51 1466.15 1135.88 1135.88.06.2.04.2.03.2.01.21.01.2-.01.2-.01.2-.03.2-1135.88-1135.88.03-.2.01-.2.01-.21-.01-.2-.01-.2-.03-.2-.04-.2z"/><path id="_330366048" class="fil1" d="M900.284 1101.36 2036.17 2237.24l6.96 100.08L907.253 1201.44z"/><path id="_330365616" class="fil1" d="m1175.71 1445.38 1135.88 1135.88 1.3 3.78-1135.88-1135.89z"/><path id="_330365856" class="fil1" d="m1177.01 1449.15 1135.88 1135.89.05.17.04.18.03.18.02.18.01.18.01.18-.01.18-.01.17-1135.88-1135.88.01-.18.01-.18-.01-.18-.01-.18-.02-.18-.03-.17-.04-.18z"/><path id="_330366720" class="fil1" d="M954.494 1412.1 2090.38 2547.98l-.16 5.46-.08 5.32-.02 5.19.05 5.06.11 4.94.17 4.83.23 4.72.29 4.62.34 4.52.41 4.44.45 4.36.51 4.28.55 4.21.61 4.15.65 4.1.7 4.05.74 4 .78 3.97.83 3.94.86 3.91.9 3.9.93 3.89.97 3.89 1 3.88 1.03 3.9 1.06 3.91 1.09 3.94 1.11 3.96 1.14 4 1.16 4.04 1.17 4.09 1.2 4.14L975.281 1549.71l-1.198-4.15-1.179-4.08-1.158-4.04-1.137-4-1.112-3.96-1.087-3.94-1.059-3.91-1.031-3.9-1-3.89-.968-3.88-.934-3.89-.899-3.9-.862-3.91-.824-3.94-.783-3.97-.741-4.01-.698-4.04-.652-4.1-.606-4.15-.557-4.21-.506-4.28-.455-4.36-.402-4.44-.347-4.52-.289-4.62-.232-4.72-.171-4.83-.11-4.94-.046-5.06.018-5.19.085-5.32z"/><path id="_330366672" class="fil1" d="m1226.55 1427.07 1135.88 1135.88.44.61.33.71-1135.88-1135.89-.33-.7z"/><path id="_330366816" class="fil1" d="m1175 1444.13 1135.89 1135.88.41.58.29.67-1135.88-1135.88-.29-.67z"/><path id="_330366264" class="fil1" d="M1227.32 1428.38 2363.2 2564.27l1.18 3.77L1228.5 1432.16z"/><path id="_330366504" class="fil1" d="m1228.5 1432.16 1135.88 1135.88.05.15.05.16.03.16.02.15.02.16.01.16.01.15v.16L1228.69 1433.41v-.16l-.01-.15-.01-.16-.02-.16-.02-.15-.03-.16-.05-.16z"/><path id="_330366432" class="fil1" d="M907.253 1201.44 2043.13 2337.32l-.93-.54-.95-.54-.95-.53-.96-.53-.98-.54-.98-.53-.99-.53-.99-.52-1.01-.53-1.02-.52-1.02-.52-1.03-.52-1.04-.52-1.05-.51-1.05-.51-1.06-.51L891.238 1193.03l1.061.52 1.053.51 1.047.51 1.038.52 1.031.52 1.024.52 1.015.52 1.007.53.998.52.991.53.98.53.974.53.962.54.955.53.944.54z"/><path id="_330366072" class="fil1" d="M891.238 1193.03 2027.12 2328.92l.66.85L891.898 1193.89z"/><path id="_330366168" class="fil1" d="m1287.55 1408.44 1135.88 1135.88 1.3 3.78-1135.88-1135.89z"/><path id="_330366528" class="fil1" d="M1288.85 1412.21 2424.73 2548.1l.04.13.03.14.02.14.02.14v.14l.01.14v.28L1288.97 1413.33v-.28l-.01-.14-.01-.14-.01-.14-.02-.14-.03-.14z"/><path id="_330366552" class="fil1" d="m1336.57 1447.27 1135.88 1135.88-57.28 19.06-1135.88-1135.88z"/><path id="_330367464" class="fil1" d="m1345.3 1407.61 1135.88 1135.88 1.6 1.65 1.44 1.81 1.27 1.97 1.08 2.11.88 2.26L1351.56 1417.4l-.88-2.25-1.08-2.12-1.26-1.96-1.44-1.81z"/><path id="_330367200" class="fil1" d="M1019.22 992.074 2155.1 2127.96l-.08 1.61-.22 1.58-.36 1.55-.5 1.51-.61 1.48-.73 1.42-.83 1.38-.93 1.34-1.02 1.27-1.1 1.22-1.17 1.16-1.23 1.1-1.28 1.02-1.33.96-1.37.88-1.4.8-1135.88-1135.88 1.4-.8 1.36-.88 1.34-.96 1.28-1.02 1.23-1.1 1.17-1.16 1.1-1.22 1.02-1.28.92-1.33.84-1.38.73-1.427.61-1.473.5-1.512.36-1.55.22-1.582z"/><path id="_330367320" class="fil1" d="m1024.06 1551.24 1135.88 1135.88-2.33.65-2.34.4-2.34.17-2.31-.07-2.27-.3-2.22-.51-2.15-.72-2.06-.91-1.97-1.12-1.86-1.3-1.73-1.48-1135.88-1135.88 1.73 1.48 1.86 1.3 1.96 1.11 2.07.92 2.15.72 2.22.51 2.27.29 2.31.07 2.34-.16 2.34-.4z"/><path id="_330367584" class="fil1" d="M975.281 1549.71 2111.16 2685.59l.6 2L975.875 1551.71z"/><path id="_330366888" class="fil1" d="M975.875 1551.71 2111.76 2687.59l.16.58.15.57.12.58.11.59.09.59.08.6.06.6.05.62L976.702 1556.43l-.051-.61-.063-.61-.077-.59-.091-.59-.108-.59-.127-.58-.145-.58z"/><path id="_330367368" class="fil1" d="M976.702 1556.43 2112.58 2692.32h-52.09L924.613 1556.43z"/><path id="_330367392" class="fil1" d="M924.613 1556.43 2060.49 2692.32h-211.05L713.56 1556.43z"/><path id="_330367488" class="fil1" d="m713.56 1556.43 1135.88 1135.89h-198.53L515.025 1556.43z"/><path id="_330367536" class="fil1" d="M515.025 1556.43 1650.91 2692.32h-50.67L464.357 1556.43z"/><path id="_330367032" class="fil1" d="M891.898 1193.89 2027.78 2329.77l1.13 1.54 1.12 1.56 1.12 1.57 1.1 1.58 1.1 1.59 1.09 1.6 1.08 1.61 1.07 1.62 1.06 1.63 1.05 1.64 1.05 1.66 1.03 1.66 1.03 1.67 1.01 1.69 1.01 1.69 1 1.7.98 1.72.98 1.72.97 1.73.96 1.74.95 1.76.94 1.76.93 1.77.92 1.78.91 1.79.91 1.8.89 1.81.88 1.82.87 1.83.86 1.83.86 1.85.84 1.85L923.597 1248.46l-.842-1.86-.852-1.84-.862-1.84-.873-1.82-.881-1.82-.892-1.81-.902-1.8-.912-1.79-.92-1.78-.932-1.77-.94-1.77-.95-1.75-.96-1.74-.968-1.73-.98-1.73-.987-1.71-.997-1.7-1.007-1.7-1.016-1.68-1.025-1.67-1.034-1.67-1.044-1.65-1.051-1.64-1.062-1.63-1.07-1.62-1.079-1.62-1.088-1.6-1.097-1.59-1.106-1.57-1.115-1.57-1.123-1.56z"/><path id="_330368112" class="fil1" d="M784.307 515.287 1920.19 1651.17v5.5L784.307 520.786z"/><path id="_330368208" class="fil1" d="M1008.94 721.699 2144.82 1857.58l.92 4.83.8 4.48.69 4.15.58 3.84.49 3.53.39 3.26.31 2.98.22 2.72.15 2.49.07 2.26.01 2.04-.05 1.85-.11 1.67-.16 1.49-.21 1.35-.24 1.2-.28 1.08-.31.97-.33.87-.35.8-.37.73-.36.67-.38.64-.36.62-.36.61-.35.62-.32.63-.31.68-.27.72-.23.8-.19.87-.15.96L1007.88 778.11l.15-.966.19-.871.23-.791.27-.725.3-.675.33-.639.34-.616.36-.61.37-.618.37-.64.37-.675.37-.729.35-.794.33-.874.31-.969.27-1.081.25-1.204.2-1.344.17-1.496.11-1.666.05-1.848-.01-2.046-.07-2.257-.15-2.485-.22-2.726-.31-2.982-.39-3.252-.49-3.537-.58-3.838-.69-4.152-.8-4.48z"/><path id="_330368352" class="fil1" d="M970.207 571.876 2106.09 1707.76l.29.34.29.34.29.34.28.34.29.35.28.34.28.35.28.34L972.491 574.622l-.278-.348-.281-.346-.283-.344-.286-.344-.287-.342-.288-.342-.291-.34z"/><path id="_330367608" class="fil1" d="M972.491 574.622 2108.37 1710.5l.89 1.19L973.376 575.807z"/><path id="_330367728" class="fil1" d="M973.376 575.807 2109.26 1711.69l.25.33.25.33.25.33.25.34.25.33.24.33.25.34.24.34L975.356 578.474l-.24-.338-.243-.336-.245-.334-.249-.333-.25-.333-.25-.331-.252-.332z"/><path id="_330367632" class="fil1" d="M975.356 578.474 2111.24 1714.36l.13.19.13.2.13.2.13.2.13.19.13.2.13.2.13.2L976.402 580.058l-.132-.199-.129-.198-.129-.2-.129-.198-.13-.199-.13-.198-.132-.197z"/><path id="_330367704" class="fil1" d="M976.402 580.058 2112.28 1715.94l.2.3.2.3.21.3.19.29.2.3.2.3.19.31.19.3L977.982 582.458l-.19-.304-.194-.302-.196-.302-.198-.298-.2-.299-.201-.299-.201-.298z"/><path id="_330368160" class="fil1" d="M977.982 582.458 2113.86 1718.34l.31.51.31.51.31.51.3.51.29.52.29.51.29.52.28.52L980.362 586.57l-.284-.521-.287-.519-.291-.517-.296-.516-.299-.512-.303-.512-.308-.509z"/><path id="_330367800" class="fil1" d="M980.362 586.57 2116.24 1722.45l1.05 2.01.96 2.05.88 2.09.8 2.12.72 2.16.63 2.19.55 2.22.47 2.26.37 2.29.29 2.32.21 2.35.12 2.38.02 2.41-.06 2.43-.15 2.46-.24 2.49L986.977 622.8l.242-2.488.151-2.462.062-2.435-.027-2.408-.117-2.38-.205-2.351-.29-2.319-.378-2.289-.464-2.258-.548-2.224-.633-2.191-.717-2.158-.801-2.122-.882-2.085-.963-2.048z"/><path id="_330368376" class="fil1" d="M1583.64 812.334 2719.52 1948.22l-36.02 350.27-1135.88-1135.88z"/><path id="_330368592" class="fil1" d="M986.977 622.8 2122.86 1758.68l-.07.52-.07.5-.07.5-.07.49-.08.48-.08.47-.08.46-.08.46L986.375 626.678l.082-.459.082-.465.08-.471.078-.479.075-.487.072-.495.068-.505z"/><path id="_330368640" class="fil1" d="M986.375 626.678 2122.26 1762.56l-.1.47L986.278 627.152z"/><path id="_330368760" class="fil1" d="M986.278 627.152 2122.16 1763.03l-.29 1.41-.31 1.34-.32 1.27-.33 1.21-.33 1.15-.33 1.1-.33 1.06-.32 1.01-.31.97-.28.94-.27.92-.24.89-.22.87-.18.86-.14.85-.1.85L981.983 643.848l.098-.848.141-.852.178-.86.214-.873.242-.89.268-.914.29-.942.307-.974.319-1.011.328-1.054.332-1.1.333-1.153.327-1.208.32-1.271.307-1.338z"/><path id="_330369096" class="fil1" d="m1547.74 1162.61 1135.88 1135.88-.38 2.39-.61 2.3-.82 2.19-1.02 2.08-1.21 1.95-1.38 1.82-1.55 1.67-1.69 1.52-1.84 1.34-1.95 1.17-2.07.98-2.17.79-2.26.57-2.32.35-2.39.12-2.44-.12-1135.88-1135.88 2.44.12 2.38-.12 2.33-.35 2.26-.58 2.17-.78 2.06-.98 1.96-1.17 1.83-1.35 1.7-1.51 1.55-1.67 1.38-1.82 1.21-1.95 1.02-2.08.82-2.19.61-2.3z"/><path id="_330368712" class="fil1" d="m1521.64 1183.73 1135.88 1135.88h-.18l-.2-.02-.2-.02-.2-.03-.21-.03-.22-.04-.22-.05-.22-.04L1519.99 1183.5l.22.04.22.04.21.04.22.04.2.03.2.02.19.02z"/><path id="_330368976" class="fil1" d="m1519.99 1183.5 1135.88 1135.88-38.15-3.89L1481.84 1179.6z"/><path id="_330368472" class="fil1" d="m1481.84 1179.6 1135.88 1135.89-.71-.12-1135.88-1135.88z"/><path id="_330368496" class="fil1" d="m1481.13 1179.49 1135.88 1135.88-10.63 104.56L1470.5 1284.05z"/><path id="_330368616" class="fil1" d="m1470.5 1284.05 1135.88 1135.88-.24 1.81-.39 1.76-.51 1.71-.63 1.64-.75 1.58-.86 1.51-.97 1.44-1.07 1.35-1.15 1.28-1.25 1.19-1.32 1.09-1.41 1-1.46.9-1.54.79-1.58.68-1.64.57-1135.88-1135.88 1.63-.57 1.59-.68 1.53-.79 1.47-.9 1.4-1 1.33-1.1 1.24-1.18 1.16-1.28 1.07-1.36.97-1.43.86-1.51.75-1.58.63-1.65.51-1.7.38-1.76z"/><path id="_330369432" class="fil1" d="m1453.73 1304.35 1135.88 1135.88-16.02 6.05L1437.71 1310.4z"/><path id="_330369864" class="fil1" d="m1437.71 1310.4 1135.88 1135.88.01.19.01.19.02.18.01.19.01.19.01.18v.38L1437.78 1311.9v-.38l-.01-.19-.01-.18-.02-.19-.01-.19-.01-.18z"/><path id="_330369600" class="fil1" d="M1388.92 1328.82 2524.8 2464.71l-68.3 25.8-1135.88-1135.89z"/><path id="_330369240" class="fil1" d="m1437.78 1311.9 1135.88 1135.88 17.22 157.32L1455 1469.21z"/><path id="_330369528" class="fil1" d="m1537.47 1504.86 1135.88 1135.88-.12 2.42-.36 2.36-.59 2.27-.8 2.18-1 2.08-1.19 1.95-1.36 1.83-1.54 1.68-1.68 1.53-1.83 1.37-1.96 1.19-2.07 1-2.18.79-2.28.59-2.36.36-2.43.12-1135.88-1135.88 2.43-.12 2.36-.36 2.27-.59 2.19-.79 2.07-1 1.96-1.19 1.83-1.37 1.68-1.53 1.53-1.68 1.37-1.83 1.19-1.96 1-2.07.8-2.18.59-2.27.35-2.36z"/><path id="_330369552" class="fil1" d="M1320.62 1354.62 2456.5 2490.51l-2.32.73-2.33.5-2.34.25-2.32.03-2.3-.21-2.25-.42-2.19-.63-2.12-.83-2.03-1.03-1.92-1.23-1.8-1.41-1.67-1.58L1295.03 1348.8l1.66 1.58 1.81 1.41 1.92 1.22 2.03 1.04 2.12.83 2.19.63 2.25.42 2.3.2 2.32-.02 2.34-.26 2.33-.49z"/><path id="_330369576" class="fil1" d="m1525.36 1472.94 1135.88 1135.88 1.86 1.9 1.72 2.2 1.57 2.44 1.42 2.65 1.27 2.79 1.11 2.91.95 2.96.78 2.97.62 2.94.45 2.87.27 2.73.09 2.56-1135.88-1135.88-.09-2.56-.27-2.74-.45-2.86-.62-2.94-.78-2.97-.95-2.97-1.11-2.9-1.27-2.8-1.42-2.64-1.57-2.44-1.72-2.2z"/><path id="_330369696" class="fil1" d="m1351.56 1417.4 1135.89 1135.89.63 2.33.38 2.34.16 2.33-.08 2.31-.29 2.27-.51 2.22-.72 2.16-.92 2.07-1.1 1.97-1.3 1.86-1.47 1.74-1.64 1.59-1.81 1.44-1.96 1.27-2.12 1.08-2.25.88-1135.88-1135.88 2.25-.88 2.12-1.08 1.96-1.27 1.81-1.44 1.64-1.59 1.47-1.74 1.3-1.86 1.1-1.98.92-2.07.71-2.15.51-2.22.3-2.27.08-2.31-.16-2.33-.39-2.34z"/><path id="_330369504" class="fil1" d="M923.669 1248.52 2059.55 2384.4l.66 1.48.65 1.49.64 1.49.64 1.5.63 1.5.62 1.51.62 1.51.61 1.52L928.738 1260.51l-.612-1.51-.617-1.52-.624-1.5-.63-1.51-.635-1.49-.643-1.5-.65-1.48z"/><path id="_330369360" class="fil1" d="M928.738 1260.51 2064.62 2396.4l.34.85L929.083 1261.37z"/><path id="_330370632" class="fil1" d="m1122.99 1460.64 1135.88 1135.88.52.49.41.58.29.66-1135.88-1135.88-.29-.67-.41-.58z"/><path id="_330369912" class="fil1" d="M937.611 1285.28 2073.49 2421.17l.74 2.37L938.344 1287.66z"/><path id="_330369936" class="fil1" d="M938.344 1287.66 2074.23 2423.54l.38 1.28.39 1.27.38 1.28.38 1.28.37 1.29.37 1.29.36 1.29.36 1.29L941.336 1297.93l-.358-1.29-.363-1.3-.368-1.28-.372-1.29-.377-1.28-.38-1.28-.385-1.28z"/><path id="_330369960" class="fil1" d="M941.336 1297.93 2077.22 2433.81l.57 2.04L941.905 1299.96z"/><path id="_330369984" class="fil1" d="M941.905 1299.96 2077.79 2435.85l.38 1.45.39 1.47.37 1.46.38 1.47.36 1.47.36 1.48.35 1.48.35 1.48L944.851 1311.73l-.349-1.49-.354-1.48-.359-1.47-.365-1.47-.371-1.47-.377-1.47-.382-1.46z"/><path id="_330370200" class="fil1" d="M944.851 1311.73 2080.73 2447.61l.72 3.22L945.57 1314.95z"/><path id="_330370032" class="fil1" d="m945.57 1314.95 1135.88 1135.88.26 1.17.26 1.17.25 1.18.25 1.17.24 1.18.24 1.18.24 1.18.24 1.19L947.547 1324.37l-.235-1.19-.238-1.18-.243-1.18-.245-1.18-.249-1.17-.252-1.18-.256-1.17z"/><path id="_330370080" class="fil1" d="M947.547 1324.37 2083.43 2460.25l.66 3.34L948.204 1327.71z"/><path id="_330370464" class="fil1" d="M948.204 1327.71 2084.09 2463.59l.27 1.49.27 1.49.26 1.49.26 1.49.25 1.5.25 1.5.24 1.5.23 1.51L950.244 1339.68l-.235-1.51-.241-1.5-.247-1.5-.253-1.5-.259-1.49-.263-1.49-.268-1.49z"/><path id="_330371424" class="fil1" d="M950.244 1339.68 2086.12 2475.56l.06.39.06.39.06.39.05.39.06.39.05.39.06.39.05.39L950.69 1342.8l-.055-.39-.056-.39-.054-.39-.055-.39-.054-.39-.057-.39-.056-.39z"/><path id="_330370968" class="fil1" d="m950.69 1342.8 1135.88 1135.88.18 1.22.17 1.23.17 1.22.16 1.23.16 1.23.15 1.23.16 1.23.15 1.23L951.985 1352.62l-.149-1.24-.153-1.23-.155-1.23-.161-1.22-.163-1.23-.168-1.22-.171-1.23z"/><path id="_330371352" class="fil1" d="M951.985 1352.62 2087.87 2488.5l.42 3.67L952.413 1356.29z"/><path id="_330370920" class="fil1" d="m1071.5 1477.63 1135.88 1135.89.52.48.41.58.29.67-1135.88-1135.88-.29-.67-.41-.58z"/><path id="_330370800" class="fil1" d="m953.59 1368.84 1135.88 1135.88.13 2.05L953.72 1370.89z"/><path id="_330371400" class="fil1" d="M953.72 1370.89 2089.6 2506.77l.1 1.39.09 1.4.08 1.39.09 1.4.07 1.4.07 1.41.07 1.4.06 1.4L954.348 1382.08l-.061-1.4-.067-1.41-.07-1.4-.076-1.4-.08-1.4-.087-1.39-.091-1.4z"/><path id="_330370704" class="fil1" d="M954.348 1382.08 2090.23 2517.96l.14 3.57L954.486 1385.65z"/><path id="_330371208" class="fil1" d="M954.486 1385.65 2090.37 2521.53l.02.82.03.83.02.82.03.83.02.82.02.83.02.82.01.83.02.82.01.83.01.83.02.83v.83l.01.83v1.66L954.732 1398.88l-.001-.83-.004-.83-.006-.83-.007-.83-.011-.83-.011-.83-.013-.83-.016-.82-.017-.83-.019-.83-.02-.82-.022-.83-.023-.82-.024-.83-.026-.82z"/><path id="_330370848" class="fil1" d="M954.732 1398.88 2090.61 2534.76v1.06l-.01.6-.01.64-.01.68-.01.73-.01.76-.02.81-.02.85-.02.9-.02.93-.02.97-.02 1.01-.02 1.06-.02 1.09-.02 1.13L954.494 1412.1l.023-1.13.022-1.09.022-1.06.021-1.01.02-.97.02-.94.019-.89.016-.85.017-.81.014-.77.013-.72.011-.68.008-.64.007-.6.004-.55z"/><path id="_330371232" class="fil1" d="m1251.33 1475.63 1135.88 1135.88-227.27 75.61-1135.88-1135.88z"/><path id="_330371856" class="fil1" d="m1279.29 1466.33 1135.88 1135.88v60.84L1279.29 1527.16z"/><path id="_330371808" class="fil1" d="m1339.88 1528.58 1135.88 1135.88-2.43-.12-2.36-.36-2.27-.59-2.18-.79-2.08-1-1.96-1.19-1.82-1.37-1.69-1.53-1135.88-1135.88 1.69 1.53 1.82 1.37 1.96 1.19 2.08 1 2.18.79 2.27.59 2.36.36z"/><path id="_330372048" class="fil1" d="m1279.29 1527.16 1135.88 1135.89-16.66-2.01-1135.88-1135.88z"/><path id="_330371592" class="fil1" d="M1513.72 1528.58 2649.6 2664.46h-173.84L1339.88 1528.58z"/><path id="_385678048" class="fil1" d="m1583.64 812.334-36.023 350.273h.123c-1.42 12.983-12.994 22.424-26.107 21.123-.469 0-1.062-.113-1.647-.232l-38.15-3.894-.712-.118-10.627 104.56c-.943 9.796-7.912 17.588-16.774 20.301l-16.02 6.056c.03.497.077.988.077 1.495l17.212 157.317h61.564c13.111 0 20.908 22.542 20.908 35.64 0 13.106-10.632 23.724-23.744 23.724h-173.847c-13.113 0-23.74-10.618-23.74-23.723 0-13.099 13.345-35.641 26.453-35.641h33.923l-.024-.233 12.434-140.158-68.302 25.8c-12.282 4.6-25.98-1.535-30.59-13.808-1.534-4.134-1.888-8.381-1.18-12.51l75.469-734.3h-.114c1.297-12.983 12.99-22.425 25.981-21.126a21.74 21.74 0 0 1 7.446 2.006l42.624 15.41.008-.069 80.433 29.152-.001-.119c10.98 4.013 17.238 15.344 15.231 26.437l-13.815 134.775 40.51 4.131c12.26 1.214 21.318 11.512 21.379 23.462v.185c-.003.767-.04 1.54-.119 2.317-.121.59-.121 1.178-.24 1.768zm-232.079 605.07c4.016 12.396-2.595 25.733-14.999 29.862l-57.28 19.06v60.837l-16.652-2.007-11.301-49.53-227.273 75.612c-12.402 4.134-25.746-2.595-29.766-14.987-4.128-12.392 2.6-25.728 15.001-29.739l22.534-7.51c-.456-.424-.843-.926-1.037-1.58l-1.301-3.778c-.586-1.887.476-4.01 2.363-4.601l36.261-12.038c1.889-.59 4.016.471 4.603 2.363l1.302 3.776c.18.61.16 1.205.059 1.782l9.118-3.037c-.4-.402-.737-.865-.91-1.459l-1.302-3.778c-.586-1.889.475-4.013 2.363-4.603l36.257-12.038c1.888-.59 4.016.471 4.607 2.36l1.301 3.78c.164.531.173 1.074.097 1.605l8.979-2.991a3.419 3.419 0 0 1-.814-1.332l-1.293-3.775c-.594-1.887.468-4.011 2.36-4.72l36.26-11.92c1.89-.59 4.013.472 4.607 2.36l1.297 3.775c.148.468.19.952.144 1.428l8.802-2.936a3.463 3.463 0 0 1-.678-1.206l-1.298-3.775c-.59-2.009.472-4.016 2.36-4.723l36.26-11.92c1.888-.708 4.016.353 4.725 2.364l1.179 3.77c.156.414.19.84.186 1.252l33.974-11.318c-.241-.311-.473-.64-.616-1.024l-1.18-3.774c-.712-1.888.355-4.016 2.242-4.724l19.724-6.489c2.006-.595 4.134.473 4.724 2.36l1.297 3.775c.118.366.118.742.118 1.113l32.719-10.904c12.399-4.134 25.748 2.595 29.877 14.982zm-397.07-5.304c-2.004 59.005 7.913 93.11 20.786 137.606l.594 2.002c.472 1.536.708 3.07.827 4.726H464.353a307.486 307.486 0 0 1-.356-14.998c-.005-21.855 2.046-44.544 4.254-68.325 1.89-20.89 3.78-42.602 4.488-62.55 2.716-83.79 31.18-160.03 74.88-215.26 19.93-25.245 43.036-46.24 68.414-61.872-3.051-1.749-5.433-3.725-6.883-5.988-9.966-15.42.971-54.922 15.08-65.204l4.999-66.86c6.206-82.303-60.08-146.797-72.158-229.355-10.015-51.953.785-108.68 66.016-177.565l.139-.142c.912-.96 1.853-1.901 2.793-2.84l1.613-1.62c.773-.748 1.57-1.483 2.36-2.221.747-.7 1.49-1.403 2.254-2.092l1.981-1.734c.94-.817 1.877-1.633 2.836-2.434l1.634-1.328c1.117-.91 2.238-1.815 3.384-2.7l1.294-.981c1.288-.98 2.59-1.95 3.913-2.9l.969-.688a198.08 198.08 0 0 1 4.41-3.043l.683-.45a196.256 196.256 0 0 1 4.878-3.138l.376-.231a203.099 203.099 0 0 1 5.364-3.218l.05-.028c21.756-12.604 46.659-21.976 72.804-28.174v-13.208c0-13.1 10.63-23.722 23.74-23.722 13.109 0 23.741 10.622 23.741 23.722v5.499c15.768-1.441 31.563-1.82 47.005-1.134l.717.038c1.991.093 3.973.197 5.951.325l1.889.138c1.574.11 3.146.223 4.711.356l2.737.254 3.808.37 3.347.384 3.122.37 3.812.518 2.58.366 4.174.66 2.139.355c1.488.255 2.963.525 4.436.804l1.796.34c1.542.3 3.072.617 4.596.942l1.558.333c1.578.347 3.138.71 4.697 1.082l1.349.323c1.609.396 3.206.807 4.794 1.229l1.134.302c1.622.44 3.228.896 4.824 1.367l1.02.302c1.622.485 3.228.987 4.82 1.505l.881.284a208.39 208.39 0 0 1 4.807 1.647l.78.278c1.601.578 3.19 1.17 4.757 1.78l.7.274c1.575.62 3.134 1.254 4.668 1.907l.667.286c1.533.657 3.05 1.33 4.542 2.02l.657.307c1.483.694 2.954 1.404 4.398 2.13l.637.326c1.437.729 2.852 1.474 4.247 2.24l.627.348c1.382.765 2.749 1.541 4.085 2.34l.631.386a132.13 132.13 0 0 1 3.905 2.436l.632.418c1.26.827 2.5 1.667 3.712 2.526l.662.48a119.78 119.78 0 0 1 3.489 2.592l.692.55c1.111.872 2.204 1.75 3.266 2.648l.733.64c1.023.887 2.043 1.78 3.02 2.694l.75.722c.952.902 1.892 1.81 2.797 2.74l.772.827a93.085 93.085 0 0 1 2.554 2.761l.816.974a94.353 94.353 0 0 1 2.284 2.746l.885 1.184c.67.884 1.345 1.764 1.98 2.667.362.519.695 1.057 1.046 1.584.535.797 1.078 1.586 1.58 2.4.838 1.35 1.63 2.72 2.38 4.113 5.786 10.623 8.15 22.893 6.616 36.23a63.07 63.07 0 0 1-.603 3.878l-.097.473c-1.495 7.71-3.893 12.175-4.294 16.696-.033.36-.062.722-.066 1.086-.04 3.271 1.075 6.726 4.47 11.62 12.989 18.529 17.594 40.008 22.553 65.146 10.395 53.344.237 45.554-1.061 56.41-2.364 33.281 42.637 56.059 49.134 96.775 2.123 16.877-18.662 15.342-32.364 16.996-3.068 3.185-3.425 10.503-4.96 19.118 6.848 6.02 15.115 23.957-1.891 26.906 7.44 12.04 5.2 19.83-11.217 27.38.616 2.423 1.08 4.83 1.467 7.227 6.733 4.247 11.17 11.443 11.17 19.562 0 8.673-6.65 16.22-14.157 20.29-8.073 22.944-26.978 25.767-55.054 27.744-29.663 2.093-48.763 25.606-62.2 57.38 5.739 1.26 10.315 2.545 12.477 3.873l6.968 100.08c-4.96-2.882-10.34-5.685-16.014-8.406l.66.851c12.118 16.433 22.77 34.748 31.698 54.574l.072.063c1.766 3.93 3.443 7.942 5.07 11.992l.345.858c3.1 7.772 5.949 15.748 8.527 23.913l.734 2.376a350.659 350.659 0 0 1 2.991 10.269l.57 2.035a355.555 355.555 0 0 1 2.945 11.76l.72 3.223a389.595 389.595 0 0 1 1.977 9.418l.656 3.345c.737 3.96 1.421 7.947 2.04 11.967.16 1.036.295 2.08.447 3.122.472 3.257.902 6.527 1.294 9.817l.429 3.674c.451 4.158.855 8.334 1.176 12.547l.13 2.05c.266 3.712.47 7.444.629 11.194l.138 3.566c.144 4.39.245 8.793.245 13.23 0 2.595-.118 7.082-.237 13.222z"/></g></g><path d="M1024 0c565.538 0 1024 458.462 1024 1024s-458.462 1024-1024 1024S0 1589.538 0 1024 458.462 0 1024 0z" style="fill:none"/><rect class="fil3" transform="matrix(.70384 -.23266 .052 .1573 1028.34 1490.54)" width="61.459" height="68.751" rx="3.706" ry="3.706"/><rect class="fil3" transform="matrix(.70384 -.23266 .052 .1573 1079.85 1473.52)" width="61.459" height="68.751" rx="3.706" ry="3.706"/><rect class="fil3" transform="matrix(.70384 -.23266 .052 .1573 1131.35 1456.49)" width="61.459" height="68.751" rx="3.706" ry="3.706"/><rect class="fil3" transform="matrix(.70384 -.23266 .052 .1573 1182.86 1439.47)" width="61.459" height="68.751" rx="3.706" ry="3.706"/><rect class="fil3" transform="matrix(.43535 -.1439 .052 .1573 1259.66 1414.08)" width="61.459" height="68.751" rx="3.706" ry="3.706"/><path class="fil3" d="m1251.03 1474.83 28.24-19.51v72.2l-16.58-1.93z"/><path class="fil4" d="M1437.84 1312.13c0-13.1-10.622-23.723-23.723-23.723-13.1 0-23.722 10.622-23.722 23.723l-13.9 157.26c0 13.1 24.522 27.429 37.622 27.429 13.101 0 41.328-10.62 41.328-23.721l-17.605-160.968z"/><path class="fil4" d="M1342.62 1469.52c-13.1 0-26.502 22.668-26.502 35.769 0 13.1 10.622 23.722 23.723 23.722h173.962c13.1 0 23.722-10.622 23.722-23.723 0-13.1-7.842-35.768-20.943-35.768H1342.62z"/><path d="m1397.62 574.513 123.079 44.54.022-.064c11.025 3.988 17.285 15.3 15.286 26.461l-13.835 134.85 40.51 4.156.012-.061c13.033 1.337 22.515 12.986 21.178 26.018-.06.576-.14 1.144-.238 1.705l-35.964 350.563.061.012c-1.337 13.032-12.986 22.514-26.02 21.177-.575-.06-1.143-.14-1.703-.238l-38.805-3.981-10.727 104.56.06.012c-1.008 9.842-7.901 17.657-16.828 20.318l-133.074 50.305.02.053c-12.254 4.632-25.945-1.548-30.576-13.801a23.608 23.608 0 0 1-1.17-12.527l75.39-734.852-.061-.012c1.337-13.032 12.986-22.513 26.018-21.177 2.618.269 5.09.955 7.365 1.983z" style="fill:#e6e6e5;fill-rule:nonzero"/><path style="fill:#37474f;fill-rule:nonzero" d="m1434.91 588.005 10.73 3.882-86.47 748.393-11.68 4.42z"/><path class="fil4" d="M1336.55 1447.56c12.385-4.094 19.105-17.453 15.012-29.837-4.094-12.385-17.453-19.105-29.838-15.012l-312.456 104.152c-12.384 4.094-19.106 17.453-15.011 29.837 4.094 12.385 17.453 19.106 29.837 15.012l312.456-104.152z"/><path d="m629.271 995.402-11.761 156.406c-8.26 6.326 206.674 31.784 245.075 37.688v-.01c13.663-67.553 32.25-145.47 87.448-149.323 31.919-2.228 51.891-5.6 57.676-38.345 2.107-11.93 2.114-24.096-1.143-36.623 16.415-7.536 18.623-15.274 11.192-27.333 17.035-3.001 8.825-20.923 1.956-26.954 1.518-8.61 1.906-15.901 4.998-19.085 13.616-1.643 34.419-.205 32.364-16.996-6.504-40.843-51.524-63.625-49.238-96.856 1.327-10.917 11.556-3.096 1.134-56.474-4.93-25.242-9.578-46.696-22.548-65.274-9.347-13.388-1.556-16.042.508-33.725 1.56-13.344-.746-25.582-6.531-36.326-49.04-91.073-282.363-91.65-364.922 10.56-147.711 182.871 23.584 268.42 13.791 398.67z" style="fill:#fdc"/><path d="M924.669 1556.84h52.033a24.07 24.07 0 0 0-.868-4.74l-.574-1.984c-12.84-44.484-22.716-78.692-20.788-137.666.202-6.213.303-10.635.303-13.263h-.099c0-79.966-23.75-152.216-62.816-205.1-40.663-55.047-97.943-89.631-163.062-91.632a1268.49 1268.49 0 0 0-5.896-.175c-67.836 0-129.86 35.587-175.298 93.12-43.727 55.367-72.145 131.582-74.888 215.514-.65 19.87-2.622 41.654-4.515 62.572-2.654 29.326-5.158 56.976-3.837 83.354H924.67z" style="fill:#0277bd;fill-rule:nonzero"/><path d="m629.269 995.402-.005.08c20.85 19.647 44.938 13.486 59.06 4.976 46.738-28.168 55.804-167.88 55.381-176.959-3.836-82.01 51.151-61.528 51.151-22.64h19.801c0-11.912 3.133-53.771 8.816-63.163 39.812-65.791 142.062-63.292 158.454-92.625-.127-5.897 3.658-11.036 5.004-22.573 1.56-13.344-.746-25.581-6.531-36.326-47.613-88.422-268.942-91.538-357.34 1.9-164.278 173.678 16.519 270.196 6.209 407.33z" style="fill:#263238"/><path d="M757.499 750.015c16.253 0 44.243 31.615 38.923 70.766-1.817 13.375-4.438 28.799-7.519 43.31-5.936 27.968 20.245 51.725-20.486 52.55-10.486.212-25.534-56.709-30.853-95.86-5.32-39.151 3.682-70.766 19.935-70.766z" style="fill:#ddbdaf"/><path d="M771.043 788.155c6.785 0 18.47 15.555 16.25 34.819-2.22 19.262-7.314 47.165-11.692 47.165-4.377 0-10.66-27.903-12.88-47.165-2.222-19.264 1.537-34.819 8.322-34.819z" style="fill:#cbafa3"/><path d="M631.204 1059.63c-.622.076-1.437.215-2.58.502-16.07 4.038-30.523 50.424-19.527 67.44 10.328 15.982 66.363 18.186 91.676 20.758 32.89 3.341 66.26 6.517 97.336 13.594 39.11 8.906 80.626 23.153 109.12 39.7l-6.92-100.167c-5.825-3.578-28.816-6.927-45.254-9.945l.245-1.066-224.095-30.816z" style="fill:#07588e"/><path d="M924.669 1556.84h52.033a24.07 24.07 0 0 0-.868-4.74l-.574-1.984c-12.84-44.484-22.716-78.693-20.788-137.666.202-6.213.303-10.636.303-13.263h-.099c0-55.076-11.268-106.49-31.044-150.44-26.378-25.484-60.231-40.188-102.725-33.804-90.076 13.534-135.703 110.177-124.768 199.498l17.434 142.4H924.67z" style="fill:#1583c8;fill-rule:nonzero"/><path d="M784.293 514.885c0-13.1-10.622-23.723-23.723-23.723-13.1 0-23.72 10.622-23.72 23.723v211.63c-12.33 3.867-23.358 10.665-32.273 19.58-14.33 14.332-23.196 34.13-23.196 55.994 0 21.865 8.865 41.662 23.196 55.993 12.777 12.776 29.897 21.207 48.954 22.887 2.698 33.398 17.465 63.52 39.904 85.958 24.897 24.898 59.25 40.354 97.049 40.354h90.004a22.118 22.118 0 0 0 15.591 6.403c12.254 0 22.187-9.935 22.187-22.187 0-12.254-9.933-22.189-22.187-22.189-9.456 0-17.529 5.918-20.724 14.25h-84.871c-31.249 0-59.667-12.793-80.278-33.402-18.466-18.468-30.656-43.206-32.991-70.632 15.186-3.249 28.76-10.853 39.35-21.442 14.33-14.33 23.195-34.128 23.195-55.993 0-21.865-8.865-41.662-23.196-55.994-8.913-8.914-19.945-15.712-32.271-19.579v-211.63z" style="fill:#c48e62;fill-rule:nonzero"/><circle cx="760.251" cy="802.826" r="83.781" style="fill:#777070"/><circle cx="760.251" cy="802.826" r="40.603" style="fill:#c84213"/><path d="M994.002 968.461c13.912 0 25.192 10.545 25.192 23.551 0 13.007-14.85 23.551-25.192 23.551s-13.016-4.043-17.543-8.108l.102.001c8.439.072 12.287-5.044 12.287-12.933 0-7.89-6.893-11.872-12-11.872-5.104 0-3.473.282-5.055.802 4.185-7.585 12.453-14.992 22.21-14.992z" style="fill:#212121"/><path d="m1522.79 780.364-40.95 399.352 38.174 3.917c.56.098 1.128.178 1.704.237 13.033 1.337 24.682-8.145 26.02-21.177l-.062-.012 35.964-350.563c.098-.561.179-1.13.238-1.704 1.337-13.033-8.145-24.682-21.177-26.019l-.012.062-39.899-4.093z" style="fill:#e6e6e5"/><path d="m1440.27 589.947-86.941 752.541 35.571-13.447 48.888-18.48 15.922-6.02c8.927-2.66 15.82-10.476 16.828-20.318l-.06-.012 10.727-104.56.63.065 40.95-399.352-.611-.064 13.835-134.85c1.998-11.161-4.261-22.473-15.286-26.461l-.022.064-80.431-29.106z" style="fill:#fffffe"/></g></svg>