<svg version="1.2" baseProfile="tiny" xmlns="http://www.w3.org/2000/svg" width="256" height="256" xml:space="preserve"><switch><g><path fill="none" stroke="#BABABA" stroke-width="4" stroke-linecap="round" stroke-linejoin="round" stroke-miterlimit="10" d="M238 193c0 11-9 20-20 20H38c-11 0-20-9-20-20v-56c0-11 9-20 20-20h180c11 0 20 9 20 20v56z"/><g stroke-width="4" stroke-linecap="round" stroke-linejoin="round" stroke-miterlimit="10"><g fill="none" stroke="#BABABA"><path d="M35 135h12M78 135h12M122 135h12M165 135h12M209 135h12"/></g><path fill="none" stroke="#BABABA" d="M57 150h12M100 150h12M144 150h12M187 150h12"/><g fill="none" stroke="#BABABA"><path d="M35 165h12M78 165h12M122 165h12M165 165h12M209 165h12"/></g><path fill="none" stroke="#BABABA" d="M57 180h12M100 180h12M144 180h12M187 180h12"/><path fill="#FFF" stroke="#F9B618" d="M40 195h171"/></g><path fill="none" stroke="#53AEE1" stroke-width="4" stroke-linecap="round" stroke-linejoin="round" stroke-miterlimit="10" d="M124 103V62c0-13.75 11.25-25 25-25h0c13.75 0 25 11.25 25 25v19c0 13.75 9.9 25 22 25s22-11.25 22-25V71"/><path fill="#EFEFEF" stroke="#BABABA" stroke-width="4" stroke-linecap="round" stroke-linejoin="round" stroke-miterlimit="10" d="M210 59h16v10h-16z"/><path fill="none" stroke="#BABABA" stroke-width="4" stroke-linecap="round" stroke-linejoin="round" stroke-miterlimit="10" d="M210 45h16v14h-16z"/><path fill="none" stroke="#EE5325" stroke-width="4" stroke-linecap="round" stroke-linejoin="round" stroke-miterlimit="10" d="M218 50v4"/><path fill="#EFEFEF" stroke="#BABABA" stroke-width="4" stroke-linecap="round" stroke-linejoin="round" stroke-miterlimit="10" d="M104 105h40v12h-40z"/></g></switch></svg>