<svg xmlns="http://www.w3.org/2000/svg" xml:space="preserve" width="2048" height="2048" style="shape-rendering:geometricPrecision;text-rendering:geometricPrecision;image-rendering:optimizeQuality;fill-rule:evenodd;clip-rule:evenodd"><defs><style>.fil5{fill:#43a047}.fil2{fill:#66bb6a}.fil4{fill:#d32f2f}.fil3{fill:#fff}.fil0{fill:#37474f;fill-rule:nonzero}</style></defs><g id="Layer_x0020_1"><g id="_355511264"><path id="_355506944" class="fil0" d="M444.618 574.117v321.881h259.383V960H380.616V574.117z"/><path id="_355507016" class="fil0" d="M380.616 1473.88V1088h323.385v64H444.618v321.88z"/><path id="_355507160" class="fil0" d="M1667.38 574.117V960H1344v-64.002h259.38V574.117z"/><path id="_355506728" class="fil0" d="M1603.38 1473.88V1152H1344v-64h323.38v385.88z"/><path id="_355507328" style="fill:#2e7d32" d="M687.126 682.658h673.749v606.337H687.126z"/><path id="_355507088" class="fil2" d="M781.045 652.056c-58.028 9.283-93.919 20.22-93.919 30.601 0 10.382 35.892 21.317 93.919 30.6 62 9.92 147.885 16.057 242.955 16.057 95.07 0 180.954-6.137 242.955-16.057 58.026-9.283 93.919-20.218 93.919-30.6 0-10.382-35.891-21.318-93.919-30.601-62-9.92-147.885-16.056-242.955-16.056-95.07 0-180.954 6.136-242.955 16.056z"/><path id="_355507304" class="fil2" d="M687.126 704.089v134.479a8.576 8.576 0 0 1 1.205 4.396c0 10.402 35.662 21.345 93.48 30.627 61.688 9.905 147.205 16.03 242.19 16.03 95.07 0 180.953-6.136 242.954-16.056 58.028-9.283 93.92-20.219 93.92-30.6V704.088c-18.136 10.6-49.796 19.517-91.224 26.145-63.044 10.087-149.908 16.325-245.651 16.325-95.743 0-182.607-6.238-245.651-16.325-41.429-6.628-73.088-15.545-91.224-26.145z"/><path id="_355506608" class="fil2" d="M687.126 863.733v148.961a8.577 8.577 0 0 1 1.205 4.397c0 10.402 35.662 21.344 93.478 30.627 61.69 9.904 147.207 16.03 242.191 16.03 95.07 0 180.956-6.137 242.956-16.055 58.027-9.285 93.918-20.22 93.918-30.603V864.397c-18.136 10.6-49.795 19.517-91.224 26.144-63.043 10.086-149.908 16.326-245.65 16.326-95.662 0-182.159-6.229-244.886-16.3-42.173-6.771-74.144-15.93-91.989-26.834z"/><path id="_355506176" class="fil2" d="M779.115 1064.69c-42.175-6.771-74.144-15.93-91.989-26.834v148.962a8.577 8.577 0 0 1 1.205 4.397c0 10.402 35.662 21.343 93.48 30.627 61.688 9.903 147.205 16.029 242.19 16.029 95.07 0 180.953-6.136 242.954-16.056 58.027-9.284 93.92-20.218 93.92-30.601V1038.52c-18.136 10.601-49.796 19.516-91.224 26.145-63.043 10.085-149.91 16.325-245.651 16.325-95.661 0-182.158-6.228-244.885-16.3z"/><path id="_355506080" class="fil2" d="M1024 1255.12c-95.661 0-182.158-6.228-244.885-16.3-42.174-6.772-74.144-15.931-91.989-26.833v148.961a8.573 8.573 0 0 1 1.205 4.396c0 10.402 35.662 21.345 93.48 30.628 61.688 9.904 147.205 16.03 242.19 16.03 95.07 0 180.953-6.136 242.954-16.056 58.028-9.284 93.92-20.22 93.92-30.602V1212.65c-18.136 10.6-49.796 19.517-91.224 26.145-63.044 10.086-149.908 16.325-245.651 16.325z"/><circle id="_355505864" class="fil3" cx="1313.59" cy="765.97" r="18.8"/><circle id="_355506536" class="fil3" cx="1313.59" cy="827.74" r="18.8"/><circle id="_355506056" class="fil4" cx="1313.59" cy="765.97" r="14.759"/><circle id="_355506416" class="fil2" cx="1313.59" cy="827.74" r="14.759"/><circle id="_355506488" class="fil3" cx="1313.59" cy="932.855" r="18.8"/><circle id="_355506560" class="fil3" cx="1313.59" cy="994.625" r="18.8"/><circle id="_355505528" class="fil4" cx="1313.59" cy="932.855" r="14.759"/><circle id="_355505384" class="fil2" cx="1313.59" cy="994.625" r="14.759"/><circle id="_355505672" class="fil3" cx="1313.59" cy="1106.98" r="18.8"/><circle id="_355505624" class="fil3" cx="1313.59" cy="1168.75" r="18.8"/><circle id="_355505768" class="fil4" cx="1313.59" cy="1106.98" r="14.759"/><circle id="_355505312" class="fil2" cx="1313.59" cy="1168.75" r="14.759"/><g><circle id="_355505456" class="fil3" cx="1313.59" cy="1281.11" r="18.8"/><circle id="_355504808" class="fil3" cx="1313.59" cy="1342.88" r="18.8"/><circle id="_355504640" class="fil4" cx="1313.59" cy="1281.11" r="14.759"/><circle id="_355504784" class="fil2" cx="1313.59" cy="1342.88" r="14.759"/></g><path id="_355504496" class="fil2" d="M565.112 280.4v301.321h-.533c0 13.474-67.74 24.398-151.96 24.398-84.222 0-152.494-10.924-152.494-24.398V280.399c0-.484.098-.968.273-1.443C265.072 266.15 331.432 256 412.62 256c84.216 0 152.49 10.922 152.493 24.398v.001z"/><path id="_355504448" class="fil2" d="M1787.88 280.399V581.72h-.533c0 13.474-67.74 24.398-151.96 24.398-84.222 0-152.494-10.924-152.494-24.398V280.398c0-.484.098-.968.273-1.443C1487.84 266.15 1554.2 256 1635.387 256c84.216 0 152.49 10.922 152.493 24.398v.001z"/><path id="_355512056" class="fil2" d="M565.112 1466.28v301.321h-.533c0 13.474-67.74 24.398-151.96 24.398-84.222 0-152.494-10.924-152.494-24.398v-301.322c0-.484.098-.968.273-1.443 4.674-12.805 71.034-22.955 152.221-22.955 84.216 0 152.49 10.922 152.493 24.398v.001z"/><path id="_355512032" class="fil2" d="M1787.87 1466.28v301.321h-.533c0 13.474-67.74 24.398-151.96 24.398-84.222 0-152.494-10.924-152.494-24.398v-301.322c0-.484.098-.968.273-1.443 4.674-12.805 71.034-22.955 152.221-22.955 84.216 0 152.49 10.922 152.493 24.398v.001z"/><path id="_355512008" class="fil5" d="M1635.38 255.999v350.117c10.985 0 21.69-.185 32-.538 68.739-2.355 119.96-12.143 119.96-23.86h.533V280.398c-.004-13.477-68.277-24.398-152.493-24.398z"/><path id="_355512344" class="fil5" d="M1635.38 1441.88v350.117c10.985 0 21.69-.185 32-.538 68.739-2.355 119.96-12.143 119.96-23.86h.533v-301.321c-.004-13.477-68.277-24.398-152.493-24.398z"/><path id="_355511480" class="fil5" d="M412.618 1441.88v350.117c10.985 0 21.69-.185 32-.538 68.739-2.355 119.96-12.143 119.96-23.86h.533v-301.321c-.004-13.477-68.277-24.398-152.493-24.398z"/><path id="_355511384" class="fil5" d="M412.618 256.002v350.117c10.985 0 21.69-.185 32-.538 68.739-2.355 119.96-12.143 119.96-23.86h.533V280.4c-.004-13.477-68.277-24.398-152.493-24.398z"/></g></g><path style="fill:none" d="M0 0h2048v2048H0z"/></svg>