<svg xmlns="http://www.w3.org/2000/svg" viewBox="0 0 48 48"><defs><style>.cls-1{fill:#7c7d7d}.cls-2{fill:#919191}.cls-3{fill:#edb996}.cls-4{fill:#f6ccaf}.cls-5{fill:#edebf2}</style></defs><g id="Stock_product" data-name="Stock product"><path class="cls-1" d="M5 3v44H1V3a2 2 0 0 1 4 0z"/><path class="cls-2" d="M5 3c0 43.26-.1 42 0 42a2 2 0 0 1-2-2V1a2 2 0 0 1 2 2z"/><path class="cls-1" d="M47 3v44h-4V3a2 2 0 0 1 4 0z"/><path class="cls-2" d="M47 3v42h-4V3a2 2 0 0 1 4 0z"/><path class="cls-1" d="M5 40h38v4H5z"/><path class="cls-2" d="M5 40h36v4H5z"/><path class="cls-1" d="M5 17h38v4H5z"/><path class="cls-2" d="M5 17h36v4H5z"/><path class="cls-3" d="M5 26h14v14H5z"/><path class="cls-4" d="M19 26c0 12.64-.1 12 0 12A12 12 0 0 1 7 26z"/><path class="cls-3" d="M5 5h20v12H5z"/><path class="cls-4" d="M25 5v10h-8A10 10 0 0 1 7 5z"/><path class="cls-3" d="M31 28h12v12H31z"/><path class="cls-4" d="M41 28c0 10.61-.1 10 0 10a8 8 0 0 1-8-8v-2z"/><path class="cls-3" d="M19 30h12v10H19z"/><path class="cls-4" d="M31 30v8h-2a8 8 0 0 1-8-8z"/><path class="cls-3" d="M25 7h18v10H25z"/><path class="cls-4" d="M41 7v8h-6a8 8 0 0 1-8-8z"/><path class="cls-5" d="M13 5h4v3a1 1 0 0 1-1 1h-2a1 1 0 0 1-1-1V5zM32 7h4v3a1 1 0 0 1-1 1h-2a1 1 0 0 1-1-1V7zM10 26h4v3a1 1 0 0 1-1 1h-2a1 1 0 0 1-1-1v-3zM23 30h4v3a1 1 0 0 1-1 1h-2a1 1 0 0 1-1-1v-3zM35 28h4v3a1 1 0 0 1-1 1h-2a1 1 0 0 1-1-1v-3z"/></g></svg>