<svg version="1.1" id="icons" xmlns="http://www.w3.org/2000/svg" x="0" y="0" viewBox="0 0 64 64" style="enable-background:new 0 0 64 64" xml:space="preserve"><style>.st0{display:none}.st1{fill:#36d7b7}.st1,.st2,.st3{display:inline}.st2{fill:none;stroke:#414042;stroke-miterlimit:10}.st3{fill:#f5ab35}.st4{fill:#f7bc5d}.st4,.st5{display:inline}.st6{fill:#414042}.st7{fill:#36d7b7}.st10,.st9{display:inline;fill:#f1f2f2}.st10{fill:none;stroke:#414042;stroke-linecap:round;stroke-miterlimit:10}.st11,.st12{display:inline;fill:#414042}.st12{fill:#e6e7e8}.st14{fill:#d1d3d4}.st14,.st15{display:inline}.st15,.st16{fill:#fff}.st17{fill:#f5ab35}.st18{fill:#f9cd86}.st19{fill:none;stroke:#414042;stroke-miterlimit:10}.st20{fill:#29a189}.st21{fill:#f7bc5d}.st22{display:inline;fill:#29a189}.st23{fill:#e6e7e8}.st26{fill:#5edfc5}.st27,.st28{fill:none;stroke-miterlimit:10}.st27{display:inline;stroke:#414042;stroke-dasharray:1}.st28{stroke:#36d7b7}.st31,.st32{display:inline}.st31{fill:#bcbec0}.st32{stroke:#f5ab35}.st32,.st33,.st34{fill:none;stroke-miterlimit:10}.st33{display:inline;stroke:#36d7b7}.st34{stroke:#414042;stroke-linecap:round}.st35{display:inline;fill:#5edfc5}.st38{fill:none;stroke:#fff;stroke-miterlimit:10}.st39,.st42{display:inline}.st39{fill:none;stroke:#fff;stroke-miterlimit:10}.st42{fill:#86e7d4}</style><g id="XMLID_139_"><g id="XMLID_596_"><path id="XMLID_636_" class="st16" d="M44.6 48.3H26.1c-.6 0-1-.4-1-1V16.5c0-.6.4-1 1-1h18.5c.6 0 1 .4 1 1v30.8c0 .6-.5 1-1 1z"/><path id="XMLID_131_" class="st19" d="M25.6 21.8v-5.4c0-.5.4-1 1-1h17.7c.5 0 1 .4 1 1v15.9"/><path id="XMLID_637_" class="st19" d="M32.7 17.7h5.2"/><path id="XMLID_638_" class="st7" d="M26.6 19.6h17.3v24.9H26.6z"/><path id="XMLID_287_" class="st20" d="M43.2 19.6v24H26.6v.8H44V19.6z"/></g><g id="XMLID_130_"><path id="XMLID_135_" class="st18" d="M23.1 33.2v15.1l12.1-7.6z"/><path id="XMLID_136_" class="st17" d="M23.1 48.3v.2h24.4l-12.3-7.8z"/><path id="XMLID_137_" class="st18" d="m47.2 33.2-12 7.5 12.3 7.8V33.2z"/><path id="XMLID_134_" class="st21" d="M47.2 33.2H23.1l12.1 10.5z"/></g><path id="XMLID_133_" class="st19" d="M16.5 23.9h18.2"/><path id="XMLID_132_" class="st19" d="M22.3 27.6h12.4"/><path id="XMLID_138_" class="st19" d="M24.6 31.2h10.1"/></g></svg>