<svg xmlns="http://www.w3.org/2000/svg" xml:space="preserve" width="2048" height="2048" style="shape-rendering:geometricPrecision;text-rendering:geometricPrecision;image-rendering:optimizeQuality;fill-rule:evenodd;clip-rule:evenodd"><defs><clipPath id="id0"><path d="M1024 0c565.538 0 1024 458.462 1024 1024s-458.462 1024-1024 1024S0 1589.538 0 1024 458.462 0 1024 0z"/></clipPath><style>.fil5{fill:#263238}.fil1{fill:#7e57c2}.fil9{fill:#dd8200}</style></defs><g id="Layer_x0020_1"><path d="M1024 0c565.538 0 1024 458.462 1024 1024s-458.462 1024-1024 1024S0 1589.538 0 1024 458.462 0 1024 0z" style="fill:#b39ddb"/><g style="clip-path:url(#id0)"><g id="_385683160"><path id="_3297189681" class="fil1" d="M1469.39 506.478 2605.27 1642.36l1.72 2.11 1.66 2.16 1.6 2.19 1.55 2.23 1.5 2.27 1.44 2.3 1.38 2.34 1.33 2.37 1.26 2.4 1.21 2.44 1.14 2.47 1.08 2.5 1.02 2.52.96 2.56.88 2.59.83 2.61.76 2.64.69 2.66.62 2.69.55 2.71.48 2.73.41 2.76.34 2.77.26 2.8.19 2.81.11 2.84.04 2.85L1494.4 574.796l-.04-2.85-.11-2.834-.19-2.814-.27-2.796-.33-2.777-.41-2.755-.48-2.733-.56-2.711-.62-2.688-.69-2.664-.75-2.637-.83-2.613-.89-2.585-.95-2.557-1.02-2.528-1.08-2.499-1.15-2.468-1.2-2.437-1.26-2.405-1.33-2.371-1.38-2.338-1.44-2.302-1.5-2.266-1.55-2.23-1.61-2.191-1.66-2.154z"/><path id="_329718728" class="fil1" d="M1494.4 574.796 2630.28 1710.68v6.12L1494.4 580.921z"/><path id="_329719904" class="fil1" d="M1494.4 580.921 2630.28 1716.8v74.12L1494.4 655.038z"/><path id="_329719304" class="fil1" d="M1494.4 655.038 2630.28 1790.92v10.56L1494.4 665.599z"/><path id="_329719424" class="fil1" d="M1494.4 665.599 2630.28 1801.48v748.93L1494.4 1414.52z"/><path id="_329719448" class="fil1" d="m1494.4 1414.52 1135.88 1135.89v52.55L1494.4 1467.08z"/><path id="_329719400" class="fil1" d="m1494.4 1467.08 1135.88 1135.88-.04 3.01-.11 2.99-.19 2.97-.26 2.95-.34 2.93-.41 2.91-.48 2.88-.55 2.86-.62 2.84-.69 2.81-.76 2.78-.83 2.76-.88 2.73-.96 2.7-1.02 2.66-1.08 2.64-1.14 2.61-1.21 2.57-1.26 2.54-1.33 2.5-1.38 2.46-1.44 2.43-1.5 2.4-1.55 2.35-1.6 2.31-1.66 2.27-1.72 2.24-1.76 2.18-1.82 2.15-1.86 2.1-1.92 2.06-1.96 2-1135.88-1135.88 1.96-2.01 1.92-2.05 1.86-2.1 1.82-2.15 1.76-2.19 1.71-2.23 1.66-2.27 1.61-2.31 1.55-2.36 1.5-2.39 1.44-2.43 1.38-2.46 1.33-2.51 1.26-2.53 1.2-2.58 1.15-2.6 1.08-2.64 1.02-2.67.95-2.69.89-2.73.83-2.76.75-2.78.69-2.81.62-2.84.56-2.86.48-2.89.41-2.9.33-2.93.27-2.95.19-2.97.11-2.99z"/><path id="_329719472" class="fil1" d="m1460.07 1549.67 1135.88 1135.88-2.01 1.97-2.05 1.91-2.1 1.87-2.15 1.81-2.19 1.76-2.23 1.72-2.27 1.66-2.31 1.6-2.36 1.56-2.39 1.49-2.43 1.44-2.46 1.38-2.51 1.33-2.53 1.26-2.58 1.21-2.6 1.14-2.64 1.08-2.67 1.02-2.69.96-2.73.89-2.76.82-2.78.76-2.81.69-2.84.62-2.86.55-2.89.48-2.9.41-2.93.34-2.95.26-2.97.19-2.99.12-3.01.03L1377.48 1584l3.01-.04 2.99-.11 2.97-.19 2.95-.26 2.93-.34 2.9-.41 2.89-.48 2.86-.55 2.84-.62 2.81-.69 2.78-.76 2.76-.83 2.73-.89 2.69-.95 2.67-1.02 2.64-1.08 2.6-1.14 2.58-1.21 2.53-1.26 2.51-1.33 2.46-1.38 2.43-1.44 2.39-1.5 2.36-1.55 2.31-1.6 2.27-1.66 2.23-1.72 2.19-1.76 2.15-1.82 2.1-1.86 2.05-1.92z"/><path id="_329719856" class="fil1" d="m1377.48 1584 1135.88 1135.88H1806.4L670.522 1584z"/><path id="_329719640" class="fil1" d="M670.522 1584 1806.4 2719.88l-3.01-.03-2.98-.12-2.98-.19-2.95-.26-2.93-.34-2.9-.41-2.89-.48-2.86-.55-2.84-.62-2.81-.69-2.78-.76-2.76-.82-2.72-.89-2.7-.96-2.67-1.02-2.64-1.08-2.6-1.14-2.57-1.21-2.54-1.26-2.5-1.33-2.47-1.38-2.43-1.44-2.39-1.49-2.36-1.56-2.31-1.6-2.27-1.66-2.23-1.72-2.19-1.76L596.237 1557.23l2.189 1.76 2.231 1.72 2.273 1.66 2.313 1.6 2.353 1.55 2.392 1.5 2.429 1.44 2.468 1.38 2.501 1.33 2.538 1.26 2.572 1.21 2.604 1.14 2.637 1.08 2.669 1.02 2.698.95 2.729.89 2.756.83 2.784.76 2.81.69 2.837.62 2.861.55 2.885.48 2.907.41 2.93.34 2.951.26 2.97.19 2.99.11z"/><path id="_385683184" class="fil1" d="M1377.48 463.999c32.177 0 61.414 12.46 82.593 32.531 21.181 20.07 34.33 47.775 34.33 78.266v892.283c0 32.177-13.149 61.414-34.33 82.594-21.18 21.18-50.416 34.329-82.593 34.329H670.524c-32.178 0-61.414-13.148-82.595-34.33-21.18-21.179-34.327-50.416-34.327-82.593V574.796c0-30.492 13.147-58.195 34.327-78.266C609.11 476.458 638.346 464 670.524 464h706.956z"/></g></g><path d="M1024 0c565.538 0 1024 458.462 1024 1024s-458.462 1024-1024 1024S0 1589.538 0 1024 458.462 0 1024 0z" style="fill:none"/><path d="M553.6 665.599v801.48c0 32.177 13.147 61.413 34.328 82.593 21.18 21.181 50.416 34.33 82.594 34.33h706.956c32.177 0 61.413-13.149 82.594-34.33 21.18-21.18 34.328-50.416 34.328-82.593V580.921c0-32.177-13.148-61.413-34.328-82.593-21.181-21.181-50.417-34.33-82.594-34.33H670.522c-32.178 0-61.414 13.149-82.594 34.33-21.181 21.18-34.328 50.416-34.328 82.593v84.678z" style="fill:#3d515a"/><path d="M553.6 655.038v759.487c0 30.491 13.147 58.197 34.328 78.267 21.18 20.072 50.416 32.53 82.594 32.53h706.956c32.177 0 61.413-12.458 82.594-32.53 21.18-20.07 34.328-47.776 34.328-78.267V574.796c0-30.491-13.148-58.196-34.328-78.267-21.181-20.07-50.417-32.53-82.594-32.53H670.522c-32.178 0-61.414 12.46-82.594 32.53-21.181 20.07-34.328 47.776-34.328 78.267v80.242z" style="fill:#455a64"/><path class="fil5" d="M868.396 1536.49h8.754v37.824h-8.754zM886.187 1536.49h8.754v37.824h-8.754zM903.979 1536.49h8.754v37.824h-8.754zM921.77 1536.49h8.754v37.824h-8.754zM939.561 1536.49h8.754v37.824h-8.754zM957.353 1536.49h8.754v37.824h-8.754zM975.144 1536.49h8.754v37.824h-8.754zM992.935 1536.49h8.754v37.824h-8.754zM1010.73 1536.49h8.754v37.824h-8.754zM1028.52 1536.49h8.754v37.824h-8.754zM1046.31 1536.49h8.754v37.824h-8.754zM1064.1 1536.49h8.754v37.824h-8.754zM1081.89 1536.49h8.754v37.824h-8.754zM1099.68 1536.49h8.754v37.824h-8.754zM1117.47 1536.49h8.754v37.824h-8.754zM1135.27 1536.49h8.754v37.824h-8.754zM1153.06 1536.49h8.754v37.824h-8.754zM1170.85 1536.49h8.754v37.824h-8.754zM984.32 1361.23c10.16-10.16 24.196-16.446 39.697-16.446 15.502 0 29.538 6.286 39.698 16.446 10.159 10.159 16.443 24.196 16.443 39.697 0 15.5-6.284 29.538-16.443 39.697-10.16 10.158-24.197 16.444-39.698 16.444-15.5 0-29.537-6.286-39.697-16.444-10.159-10.159-16.445-24.198-16.445-39.697 0-15.5 6.286-29.538 16.445-39.697zM929.273 560.644c0-11.626 9.425-21.05 21.05-21.05h147.353c11.625 0 21.05 9.424 21.05 21.05 0 11.626-9.425 21.05-21.05 21.05H950.324c-11.626 0-21.051-9.424-21.051-21.05z"/><path style="fill:#3ea9d2" d="M1449.6 658.834V1291.2H598.4V658.834z"/><path style="fill:#2e95ba" d="M1449.6 657.922v24.501H621.15V1291.2H598.4V657.922z"/><path d="M1241.02 1042.68c-5.705 18.654-13.842 36.743-24.553 54.014l30.548 59.894 12.663 24.828-27.75-2.498-89.152-8.026c-17.6 11.087-36.456 19.793-56.445 25.807-21.066 6.338-43.33 9.688-66.644 9.688-63.875 0-121.719-25.907-163.593-67.78-41.873-41.874-67.78-99.718-67.78-163.592 0-63.875 25.907-121.72 67.78-163.593 41.875-41.874 99.718-67.78 163.593-67.78 63.874 0 121.72 25.906 163.593 67.78 41.874 41.873 67.78 99.718 67.78 163.593 0 22.827-3.266 45.514-10.04 67.665z" style="fill:#fc0;fill-rule:nonzero"/><path class="fil9" d="M868.596 915.955h189.647v23.333H868.596zM868.596 963.351h310.807v23.333H868.596zM868.596 1010.75h310.807v23.333H868.596z"/></g></svg>